<?xml version="1.0" encoding="UTF-8" standalone="no"?>
<svg
   xmlns:dc="http://purl.org/dc/elements/1.1/"
   xmlns:cc="http://creativecommons.org/ns#"
   xmlns:rdf="http://www.w3.org/1999/02/22-rdf-syntax-ns#"
   xmlns:svg="http://www.w3.org/2000/svg"
   xmlns="http://www.w3.org/2000/svg"
   xmlns:sodipodi="http://sodipodi.sourceforge.net/DTD/sodipodi-0.dtd"
   xmlns:inkscape="http://www.inkscape.org/namespaces/inkscape"
   width="300"
   height="250"
   viewBox="0 0 1080 900"
   version="1.1"
   id="svg4786"
   sodipodi:docname="background2.svg"
   inkscape:version="0.92.1 r15371">
  <metadata
     id="metadata4792">
    <rdf:RDF>
      <cc:Work
         rdf:about="">
        <dc:format>image/svg+xml</dc:format>
        <dc:type
           rdf:resource="http://purl.org/dc/dcmitype/StillImage" />
        <dc:title></dc:title>
      </cc:Work>
    </rdf:RDF>
  </metadata>
  <defs
     id="defs4790" />
  <sodipodi:namedview
     pagecolor="#ffffff"
     bordercolor="#666666"
     borderopacity="1"
     objecttolerance="10"
     gridtolerance="10"
     guidetolerance="10"
     inkscape:pageopacity="0"
     inkscape:pageshadow="2"
     inkscape:window-width="1366"
     inkscape:window-height="705"
     id="namedview4788"
     showgrid="false"
     inkscape:zoom="2.088"
     inkscape:cx="150"
     inkscape:cy="125"
     inkscape:window-x="-8"
     inkscape:window-y="-8"
     inkscape:window-maximized="1"
     inkscape:current-layer="svg4786" />
  <rect
     fill="#ffc2e8"
     width="1080"
     height="900"
     id="rect4644"
     style="opacity:0.34" />
  <g
     id="g4784"
     style="fill-opacity:0.03999999;opacity:0.59">
    <polygon
       points="180,300 90,150 0,300 "
       id="polygon4646"
       style="fill:#444444" />
    <polygon
       points="0,0 90,150 180,0 "
       id="polygon4648"
       style="" />
    <polygon
       points="180,0 270,150 360,0 "
       id="polygon4650"
       style="fill:#aaaaaa" />
    <polygon
       points="540,300 450,150 360,300 "
       id="polygon4652"
       style="fill:#dddddd" />
    <polygon
       points="360,0 450,150 540,0 "
       id="polygon4654"
       style="fill:#999999" />
    <polygon
       points="720,300 630,150 540,300 "
       id="polygon4656"
       style="" />
    <polygon
       points="540,0 630,150 720,0 "
       id="polygon4658"
       style="fill:#dddddd" />
    <polygon
       points="900,300 810,150 720,300 "
       id="polygon4660"
       style="fill:#444444" />
    <polygon
       points="720,0 810,150 900,0 "
       id="polygon4662"
       style="fill:#ffffff" />
    <polygon
       points="1080,300 990,150 900,300 "
       id="polygon4664"
       style="fill:#dddddd" />
    <polygon
       points="900,0 990,150 1080,0 "
       id="polygon4666"
       style="fill:#444444" />
    <polygon
       points="180,600 90,450 0,600 "
       id="polygon4668"
       style="fill:#dddddd" />
    <polygon
       points="0,300 90,450 180,300 "
       id="polygon4670"
       style="" />
    <polygon
       points="360,600 270,450 180,600 "
       id="polygon4672"
       style="fill:#666666" />
    <polygon
       points="180,300 270,450 360,300 "
       id="polygon4674"
       style="fill:#aaaaaa" />
    <polygon
       points="540,600 450,450 360,600 "
       id="polygon4676"
       style="fill:#dddddd" />
    <polygon
       points="360,300 450,450 540,300 "
       id="polygon4678"
       style="fill:#999999" />
    <polygon
       points="720,600 630,450 540,600 "
       id="polygon4680"
       style="fill:#999999" />
    <polygon
       points="540,300 630,450 720,300 "
       id="polygon4682"
       style="fill:#ffffff" />
    <polygon
       points="900,600 810,450 720,600 "
       id="polygon4684"
       style="" />
    <polygon
       points="720,300 810,450 900,300 "
       id="polygon4686"
       style="fill:#dddddd" />
    <polygon
       points="1080,600 990,450 900,600 "
       id="polygon4688"
       style="fill:#aaaaaa" />
    <polygon
       points="900,300 990,450 1080,300 "
       id="polygon4690"
       style="fill:#444444" />
    <polygon
       points="180,900 90,750 0,900 "
       id="polygon4692"
       style="fill:#222222" />
    <polygon
       points="360,900 270,750 180,900 "
       id="polygon4694"
       style="" />
    <polygon
       points="180,600 270,750 360,600 "
       id="polygon4696"
       style="fill:#dddddd" />
    <polygon
       points="360,600 450,750 540,600 "
       id="polygon4698"
       style="" />
    <polygon
       points="720,900 630,750 540,900 "
       id="polygon4700"
       style="" />
    <polygon
       points="540,600 630,750 720,600 "
       id="polygon4702"
       style="fill:#444444" />
    <polygon
       points="900,900 810,750 720,900 "
       id="polygon4704"
       style="fill:#aaaaaa" />
    <polygon
       points="720,600 810,750 900,600 "
       id="polygon4706"
       style="fill:#666666" />
    <polygon
       points="1080,900 990,750 900,900 "
       id="polygon4708"
       style="fill:#999999" />
    <polygon
       points="270,150 180,0 90,150 "
       id="polygon4710"
       style="fill:#999999" />
    <polygon
       points="450,150 360,0 270,150 "
       id="polygon4712"
       style="fill:#444444" />
    <polygon
       points="630,150 540,0 450,150 "
       id="polygon4714"
       style="fill:#ffffff" />
    <polygon
       points="990,150 900,0 810,150 "
       id="polygon4716"
       style="" />
    <polygon
       points="90,450 0,300 -90,450 "
       id="polygon4718"
       style="fill:#222222" />
    <polygon
       points="-90,150 0,300 90,150 "
       id="polygon4720"
       style="fill:#ffffff" />
    <polygon
       points="270,450 180,300 90,450 "
       id="polygon4722"
       style="fill:#ffffff" />
    <polygon
       points="90,150 180,300 270,150 "
       id="polygon4724"
       style="fill:#666666" />
    <polygon
       points="450,450 360,300 270,450 "
       id="polygon4726"
       style="fill:#222222" />
    <polygon
       points="270,150 360,300 450,150 "
       id="polygon4728"
       style="fill:#ffffff" />
    <polygon
       points="630,450 540,300 450,450 "
       id="polygon4730"
       style="fill:#444444" />
    <polygon
       points="450,150 540,300 630,150 "
       id="polygon4732"
       style="fill:#222222" />
    <polygon
       points="810,450 720,300 630,450 "
       id="polygon4734"
       style="fill:#aaaaaa" />
    <polygon
       points="630,150 720,300 810,150 "
       id="polygon4736"
       style="fill:#666666" />
    <polygon
       points="990,450 900,300 810,450 "
       id="polygon4738"
       style="fill:#ffffff" />
    <polygon
       points="810,150 900,300 990,150 "
       id="polygon4740"
       style="fill:#999999" />
    <polygon
       points="90,750 0,600 -90,750 "
       id="polygon4742"
       style="" />
    <polygon
       points="-90,450 0,600 90,450 "
       id="polygon4744"
       style="fill:#666666" />
    <polygon
       points="270,750 180,600 90,750 "
       id="polygon4746"
       style="fill:#aaaaaa" />
    <polygon
       points="90,450 180,600 270,450 "
       id="polygon4748"
       style="fill:#444444" />
    <polygon
       points="450,750 360,600 270,750 "
       id="polygon4750"
       style="fill:#444444" />
    <polygon
       points="270,450 360,600 450,450 "
       id="polygon4752"
       style="fill:#999999" />
    <polygon
       points="450,450 540,600 630,450 "
       id="polygon4754"
       style="fill:#666666" />
    <polygon
       points="810,750 720,600 630,750 "
       id="polygon4756"
       style="fill:#222222" />
    <polygon
       points="990,750 900,600 810,750 "
       id="polygon4758"
       style="fill:#ffffff" />
    <polygon
       points="810,450 900,600 990,450 "
       id="polygon4760"
       style="fill:#222222" />
    <polygon
       points="-90,750 0,900 90,750 "
       id="polygon4762"
       style="fill:#dddddd" />
    <polygon
       points="90,750 180,900 270,750 "
       id="polygon4764"
       style="fill:#444444" />
    <polygon
       points="270,750 360,900 450,750 "
       id="polygon4766"
       style="fill:#ffffff" />
    <polygon
       points="450,750 540,900 630,750 "
       id="polygon4768"
       style="fill:#aaaaaa" />
    <polygon
       points="630,750 720,900 810,750 "
       id="polygon4770"
       style="fill:#ffffff" />
    <polygon
       points="810,750 900,900 990,750 "
       id="polygon4772"
       style="fill:#222222" />
    <polygon
       points="1170,450 1080,300 990,450 "
       id="polygon4774"
       style="fill:#222222" />
    <polygon
       points="990,150 1080,300 1170,150 "
       id="polygon4776"
       style="fill:#ffffff" />
    <polygon
       points="1170,750 1080,600 990,750 "
       id="polygon4778"
       style="" />
    <polygon
       points="990,450 1080,600 1170,450 "
       id="polygon4780"
       style="fill:#666666" />
    <polygon
       points="990,750 1080,900 1170,750 "
       id="polygon4782"
       style="fill:#dddddd" />
  </g>
</svg>
